<mxfile host="app.diagrams.net" modified="2024-03-25T02:49:19.518Z" agent="Mozilla/5.0 (Windows NT 10.0; Win64; x64) AppleWebKit/537.36 (KHTML, like Gecko) Chrome/122.0.0.0 Safari/537.36 Edg/122.0.0.0" etag="9waTerD9gH512qzh1qJb" version="24.1.0" type="github">
  <diagram id="6a731a19-8d31-9384-78a2-239565b7b9f0" name="Page-1">
    <mxGraphModel dx="1720" dy="1224" grid="1" gridSize="10" guides="1" tooltips="1" connect="1" arrows="1" fold="1" page="1" pageScale="1" pageWidth="1169" pageHeight="827" background="none" math="0" shadow="0">
      <root>
        <mxCell id="0" />
        <mxCell id="1" parent="0" />
        <mxCell id="rLSriaPja6_mRSmvIVSB-55" value="" style="ellipse;whiteSpace=wrap;html=1;aspect=fixed;fillColor=#050505;strokeWidth=2;spacing=2;fontSize=20;fontColor=default;labelBackgroundColor=none;horizontal=1;" vertex="1" parent="1">
          <mxGeometry x="30" y="715" width="30" height="30" as="geometry" />
        </mxCell>
        <mxCell id="rLSriaPja6_mRSmvIVSB-81" style="edgeStyle=orthogonalEdgeStyle;rounded=0;orthogonalLoop=1;jettySize=auto;html=1;exitX=1;exitY=0.5;exitDx=0;exitDy=0;entryX=0;entryY=0.5;entryDx=0;entryDy=0;fontSize=20;strokeWidth=2;" edge="1" parent="1" source="rLSriaPja6_mRSmvIVSB-57" target="rLSriaPja6_mRSmvIVSB-65">
          <mxGeometry relative="1" as="geometry" />
        </mxCell>
        <mxCell id="rLSriaPja6_mRSmvIVSB-82" style="edgeStyle=orthogonalEdgeStyle;rounded=0;orthogonalLoop=1;jettySize=auto;html=1;exitX=1;exitY=0.5;exitDx=0;exitDy=0;entryX=0;entryY=0.5;entryDx=0;entryDy=0;fontSize=20;strokeWidth=2;" edge="1" parent="1" source="rLSriaPja6_mRSmvIVSB-57" target="rLSriaPja6_mRSmvIVSB-74">
          <mxGeometry relative="1" as="geometry">
            <Array as="points">
              <mxPoint x="340" y="730" />
              <mxPoint x="340" y="870" />
            </Array>
          </mxGeometry>
        </mxCell>
        <mxCell id="rLSriaPja6_mRSmvIVSB-84" value="是" style="edgeLabel;html=1;align=center;verticalAlign=middle;resizable=0;points=[];fontSize=20;" vertex="1" connectable="0" parent="rLSriaPja6_mRSmvIVSB-82">
          <mxGeometry x="-0.7578" y="15" relative="1" as="geometry">
            <mxPoint as="offset" />
          </mxGeometry>
        </mxCell>
        <mxCell id="rLSriaPja6_mRSmvIVSB-57" value="&lt;font style=&quot;font-size: 20px;&quot;&gt;用户是否登录&lt;/font&gt;" style="rhombus;whiteSpace=wrap;html=1;strokeWidth=2;spacing=2;fontSize=20;fontColor=default;labelBackgroundColor=none;horizontal=1;" vertex="1" parent="1">
          <mxGeometry x="80.53" y="690" width="199.47" height="80" as="geometry" />
        </mxCell>
        <mxCell id="rLSriaPja6_mRSmvIVSB-58" value="" style="group;strokeWidth=2;spacing=2;fontSize=20;fontColor=default;labelBackgroundColor=none;horizontal=1;" vertex="1" connectable="0" parent="1">
          <mxGeometry x="125.53" y="865" width="120" height="60" as="geometry" />
        </mxCell>
        <mxCell id="rLSriaPja6_mRSmvIVSB-59" value="&lt;font style=&quot;font-size: 20px;&quot;&gt;用户登录&lt;/font&gt;" style="rounded=0;whiteSpace=wrap;html=1;strokeWidth=2;spacing=2;fontSize=20;fontColor=default;labelBackgroundColor=none;horizontal=1;" vertex="1" parent="rLSriaPja6_mRSmvIVSB-58">
          <mxGeometry width="120" height="60" as="geometry" />
        </mxCell>
        <mxCell id="rLSriaPja6_mRSmvIVSB-60" value="" style="endArrow=classic;html=1;rounded=0;entryX=0.5;entryY=0;entryDx=0;entryDy=0;strokeWidth=2;spacing=2;fontSize=20;fontColor=default;labelBackgroundColor=none;horizontal=1;" edge="1" parent="1">
          <mxGeometry width="50" height="50" relative="1" as="geometry">
            <mxPoint x="179.36" y="770" as="sourcePoint" />
            <mxPoint x="179.89" y="865" as="targetPoint" />
          </mxGeometry>
        </mxCell>
        <mxCell id="rLSriaPja6_mRSmvIVSB-61" value="否" style="edgeLabel;html=1;align=center;verticalAlign=middle;resizable=0;points=[];fontSize=20;" vertex="1" connectable="0" parent="rLSriaPja6_mRSmvIVSB-60">
          <mxGeometry x="-0.1623" relative="1" as="geometry">
            <mxPoint as="offset" />
          </mxGeometry>
        </mxCell>
        <mxCell id="rLSriaPja6_mRSmvIVSB-62" value="" style="endArrow=classic;html=1;rounded=0;exitX=1;exitY=0.5;exitDx=0;exitDy=0;entryX=0;entryY=0.5;entryDx=0;entryDy=0;strokeWidth=2;spacing=2;fontSize=20;fontColor=default;labelBackgroundColor=none;horizontal=1;" edge="1" parent="1" source="rLSriaPja6_mRSmvIVSB-55" target="rLSriaPja6_mRSmvIVSB-57">
          <mxGeometry width="50" height="50" relative="1" as="geometry">
            <mxPoint x="350.53" y="880" as="sourcePoint" />
            <mxPoint x="400.53" y="830" as="targetPoint" />
          </mxGeometry>
        </mxCell>
        <mxCell id="rLSriaPja6_mRSmvIVSB-64" value="" style="group;strokeWidth=2;spacing=2;fontSize=20;fontColor=default;labelBackgroundColor=none;horizontal=1;" vertex="1" connectable="0" parent="1">
          <mxGeometry x="400" y="540" width="160" height="60" as="geometry" />
        </mxCell>
        <mxCell id="rLSriaPja6_mRSmvIVSB-65" value="&lt;font style=&quot;font-size: 20px;&quot;&gt;输入关键词成果检索&lt;/font&gt;" style="rounded=0;whiteSpace=wrap;html=1;strokeWidth=2;spacing=2;fontSize=20;fontColor=default;labelBackgroundColor=none;horizontal=1;" vertex="1" parent="rLSriaPja6_mRSmvIVSB-64">
          <mxGeometry width="160" height="60" as="geometry" />
        </mxCell>
        <mxCell id="rLSriaPja6_mRSmvIVSB-83" style="edgeStyle=orthogonalEdgeStyle;rounded=0;orthogonalLoop=1;jettySize=auto;html=1;exitX=0.5;exitY=1;exitDx=0;exitDy=0;entryX=0.5;entryY=0;entryDx=0;entryDy=0;fontSize=20;strokeWidth=2;" edge="1" parent="1" source="rLSriaPja6_mRSmvIVSB-66" target="rLSriaPja6_mRSmvIVSB-71">
          <mxGeometry relative="1" as="geometry" />
        </mxCell>
        <mxCell id="rLSriaPja6_mRSmvIVSB-87" value="否" style="edgeLabel;html=1;align=center;verticalAlign=middle;resizable=0;points=[];" vertex="1" connectable="0" parent="rLSriaPja6_mRSmvIVSB-83">
          <mxGeometry x="-0.3954" y="3" relative="1" as="geometry">
            <mxPoint as="offset" />
          </mxGeometry>
        </mxCell>
        <mxCell id="rLSriaPja6_mRSmvIVSB-88" style="edgeStyle=orthogonalEdgeStyle;rounded=0;orthogonalLoop=1;jettySize=auto;html=1;exitX=1;exitY=0.5;exitDx=0;exitDy=0;entryX=0;entryY=0.5;entryDx=0;entryDy=0;" edge="1" parent="1" source="rLSriaPja6_mRSmvIVSB-66" target="rLSriaPja6_mRSmvIVSB-68">
          <mxGeometry relative="1" as="geometry" />
        </mxCell>
        <mxCell id="rLSriaPja6_mRSmvIVSB-89" value="是" style="edgeLabel;html=1;align=center;verticalAlign=middle;resizable=0;points=[];" vertex="1" connectable="0" parent="rLSriaPja6_mRSmvIVSB-88">
          <mxGeometry x="0.013" y="12" relative="1" as="geometry">
            <mxPoint as="offset" />
          </mxGeometry>
        </mxCell>
        <mxCell id="rLSriaPja6_mRSmvIVSB-66" value="是否存在相关成果" style="rhombus;whiteSpace=wrap;html=1;strokeWidth=2;spacing=2;fontSize=20;fontColor=default;labelBackgroundColor=none;horizontal=1;" vertex="1" parent="1">
          <mxGeometry x="650" y="520" width="199.47" height="100" as="geometry" />
        </mxCell>
        <mxCell id="rLSriaPja6_mRSmvIVSB-67" value="" style="group;strokeWidth=2;spacing=2;fontSize=20;fontColor=default;labelBackgroundColor=none;horizontal=1;" vertex="1" connectable="0" parent="1">
          <mxGeometry x="960" y="530" width="150" height="80" as="geometry" />
        </mxCell>
        <mxCell id="rLSriaPja6_mRSmvIVSB-68" value="&lt;font style=&quot;font-size: 20px;&quot;&gt;成果展示&lt;/font&gt;" style="rounded=0;whiteSpace=wrap;html=1;strokeWidth=2;spacing=2;fontSize=20;fontColor=default;labelBackgroundColor=none;horizontal=1;" vertex="1" parent="rLSriaPja6_mRSmvIVSB-67">
          <mxGeometry width="150" height="80" as="geometry" />
        </mxCell>
        <mxCell id="rLSriaPja6_mRSmvIVSB-69" value="成果相关内容" style="ellipse;whiteSpace=wrap;html=1;fontSize=20;strokeWidth=2;" vertex="1" parent="1">
          <mxGeometry x="1210" y="530" width="170" height="80" as="geometry" />
        </mxCell>
        <mxCell id="rLSriaPja6_mRSmvIVSB-70" value="多种格式引用" style="ellipse;whiteSpace=wrap;html=1;fontSize=20;strokeWidth=2;" vertex="1" parent="1">
          <mxGeometry x="1220" y="690" width="170" height="80" as="geometry" />
        </mxCell>
        <mxCell id="rLSriaPja6_mRSmvIVSB-71" value="友好提示" style="ellipse;whiteSpace=wrap;html=1;fontSize=20;strokeWidth=2;" vertex="1" parent="1">
          <mxGeometry x="665.47" y="680" width="170" height="80" as="geometry" />
        </mxCell>
        <mxCell id="rLSriaPja6_mRSmvIVSB-72" value="" style="group;strokeWidth=2;spacing=2;fontSize=20;fontColor=default;labelBackgroundColor=none;horizontal=1;" vertex="1" connectable="0" parent="1">
          <mxGeometry x="960" y="690" width="150" height="80" as="geometry" />
        </mxCell>
        <mxCell id="rLSriaPja6_mRSmvIVSB-73" value="&lt;font style=&quot;font-size: 20px;&quot;&gt;成果导出&lt;/font&gt;" style="rounded=0;whiteSpace=wrap;html=1;strokeWidth=2;spacing=2;fontSize=20;fontColor=default;labelBackgroundColor=none;horizontal=1;" vertex="1" parent="rLSriaPja6_mRSmvIVSB-72">
          <mxGeometry width="150" height="80" as="geometry" />
        </mxCell>
        <mxCell id="rLSriaPja6_mRSmvIVSB-85" style="edgeStyle=orthogonalEdgeStyle;rounded=0;orthogonalLoop=1;jettySize=auto;html=1;exitX=1;exitY=0.5;exitDx=0;exitDy=0;entryX=0;entryY=0.5;entryDx=0;entryDy=0;" edge="1" parent="1" source="rLSriaPja6_mRSmvIVSB-74" target="rLSriaPja6_mRSmvIVSB-76">
          <mxGeometry relative="1" as="geometry" />
        </mxCell>
        <mxCell id="rLSriaPja6_mRSmvIVSB-86" value="是" style="edgeLabel;html=1;align=center;verticalAlign=middle;resizable=0;points=[];" vertex="1" connectable="0" parent="rLSriaPja6_mRSmvIVSB-85">
          <mxGeometry x="-0.2329" y="12" relative="1" as="geometry">
            <mxPoint as="offset" />
          </mxGeometry>
        </mxCell>
        <mxCell id="rLSriaPja6_mRSmvIVSB-74" value="是否是专家" style="rhombus;whiteSpace=wrap;html=1;strokeWidth=2;spacing=2;fontSize=20;fontColor=default;labelBackgroundColor=none;horizontal=1;" vertex="1" parent="1">
          <mxGeometry x="380.26" y="820" width="199.47" height="100" as="geometry" />
        </mxCell>
        <mxCell id="rLSriaPja6_mRSmvIVSB-75" value="" style="group;strokeWidth=2;spacing=2;fontSize=20;fontColor=default;labelBackgroundColor=none;horizontal=1;" vertex="1" connectable="0" parent="1">
          <mxGeometry x="689.47" y="830" width="150" height="80" as="geometry" />
        </mxCell>
        <mxCell id="rLSriaPja6_mRSmvIVSB-76" value="&lt;font style=&quot;font-size: 20px;&quot;&gt;进入成果发布页面&lt;/font&gt;" style="rounded=0;whiteSpace=wrap;html=1;strokeWidth=2;spacing=2;fontSize=20;fontColor=default;labelBackgroundColor=none;horizontal=1;" vertex="1" parent="rLSriaPja6_mRSmvIVSB-75">
          <mxGeometry width="150" height="80" as="geometry" />
        </mxCell>
        <mxCell id="rLSriaPja6_mRSmvIVSB-77" value="" style="group;strokeWidth=2;spacing=2;fontSize=20;fontColor=default;labelBackgroundColor=none;horizontal=1;" vertex="1" connectable="0" parent="1">
          <mxGeometry x="960" y="830" width="150" height="80" as="geometry" />
        </mxCell>
        <mxCell id="rLSriaPja6_mRSmvIVSB-78" value="&lt;font style=&quot;font-size: 20px;&quot;&gt;填写成果发布信息&lt;/font&gt;" style="rounded=0;whiteSpace=wrap;html=1;strokeWidth=2;spacing=2;fontSize=20;fontColor=default;labelBackgroundColor=none;horizontal=1;" vertex="1" parent="rLSriaPja6_mRSmvIVSB-77">
          <mxGeometry width="150" height="80" as="geometry" />
        </mxCell>
        <mxCell id="rLSriaPja6_mRSmvIVSB-79" value="" style="group;strokeWidth=2;spacing=2;fontSize=20;fontColor=default;labelBackgroundColor=none;horizontal=1;" vertex="1" connectable="0" parent="1">
          <mxGeometry x="1240" y="830" width="150" height="80" as="geometry" />
        </mxCell>
        <mxCell id="rLSriaPja6_mRSmvIVSB-80" value="&lt;font style=&quot;font-size: 20px;&quot;&gt;发布成果&lt;/font&gt;" style="rounded=0;whiteSpace=wrap;html=1;strokeWidth=2;spacing=2;fontSize=20;fontColor=default;labelBackgroundColor=none;horizontal=1;" vertex="1" parent="rLSriaPja6_mRSmvIVSB-79">
          <mxGeometry width="150" height="80" as="geometry" />
        </mxCell>
        <mxCell id="rLSriaPja6_mRSmvIVSB-90" style="edgeStyle=orthogonalEdgeStyle;rounded=0;orthogonalLoop=1;jettySize=auto;html=1;exitX=1;exitY=0.5;exitDx=0;exitDy=0;entryX=0;entryY=0.5;entryDx=0;entryDy=0;" edge="1" parent="1" source="rLSriaPja6_mRSmvIVSB-65" target="rLSriaPja6_mRSmvIVSB-66">
          <mxGeometry relative="1" as="geometry" />
        </mxCell>
        <mxCell id="rLSriaPja6_mRSmvIVSB-91" style="edgeStyle=orthogonalEdgeStyle;rounded=0;orthogonalLoop=1;jettySize=auto;html=1;exitX=1;exitY=0.5;exitDx=0;exitDy=0;entryX=0;entryY=0.5;entryDx=0;entryDy=0;" edge="1" parent="1" source="rLSriaPja6_mRSmvIVSB-68" target="rLSriaPja6_mRSmvIVSB-69">
          <mxGeometry relative="1" as="geometry" />
        </mxCell>
        <mxCell id="rLSriaPja6_mRSmvIVSB-92" style="edgeStyle=orthogonalEdgeStyle;rounded=0;orthogonalLoop=1;jettySize=auto;html=1;exitX=0.5;exitY=1;exitDx=0;exitDy=0;entryX=0.5;entryY=0;entryDx=0;entryDy=0;" edge="1" parent="1" source="rLSriaPja6_mRSmvIVSB-68" target="rLSriaPja6_mRSmvIVSB-73">
          <mxGeometry relative="1" as="geometry" />
        </mxCell>
        <mxCell id="rLSriaPja6_mRSmvIVSB-93" style="edgeStyle=orthogonalEdgeStyle;rounded=0;orthogonalLoop=1;jettySize=auto;html=1;exitX=1;exitY=0.5;exitDx=0;exitDy=0;entryX=0;entryY=0.5;entryDx=0;entryDy=0;" edge="1" parent="1" source="rLSriaPja6_mRSmvIVSB-73" target="rLSriaPja6_mRSmvIVSB-70">
          <mxGeometry relative="1" as="geometry" />
        </mxCell>
        <mxCell id="rLSriaPja6_mRSmvIVSB-94" style="edgeStyle=orthogonalEdgeStyle;rounded=0;orthogonalLoop=1;jettySize=auto;html=1;exitX=1;exitY=0.5;exitDx=0;exitDy=0;entryX=0;entryY=0.5;entryDx=0;entryDy=0;" edge="1" parent="1" source="rLSriaPja6_mRSmvIVSB-78" target="rLSriaPja6_mRSmvIVSB-80">
          <mxGeometry relative="1" as="geometry" />
        </mxCell>
        <mxCell id="rLSriaPja6_mRSmvIVSB-95" style="edgeStyle=orthogonalEdgeStyle;rounded=0;orthogonalLoop=1;jettySize=auto;html=1;exitX=1;exitY=0.5;exitDx=0;exitDy=0;entryX=0;entryY=0.5;entryDx=0;entryDy=0;" edge="1" parent="1" source="rLSriaPja6_mRSmvIVSB-76" target="rLSriaPja6_mRSmvIVSB-78">
          <mxGeometry relative="1" as="geometry" />
        </mxCell>
      </root>
    </mxGraphModel>
  </diagram>
</mxfile>
